<svg id="a6721016-bd8c-47fa-9ea3-10e541707472" data-name="Capa 1" xmlns="http://www.w3.org/2000/svg" viewBox="0 0 100 100"><title>_</title><path d="M50.45,32.89H66.3c2.14,0,3.1.75,3.14,2.38s-1.07,2.58-3.2,2.59c-5.54,0-11.07,0-16.61,0h-16c-1.38,0-2.48-.38-2.81-1.9S32,33,33.85,33c5.53,0,11.07,0,16.6,0Z"/><path d="M64.85,37.89c-1.65.11-3.33.28-5,.26-8.55-.14-17.09.37-25.64.41-1.06,0-.87.59-.77,1.22.71,4.48,1.39,9,2.14,13.43.91,5.43,1.79,10.88,2.67,16.29a4.64,4.64,0,0,0,.33,1.28c.47,1,.47,2.31,1.38,3a4.36,4.36,0,0,0,2.94.58c5.54-.29,11.09-.29,16.63-.42,2.33,0,3.1-.85,3.3-3.18.24-2.94.57-5.88.84-8.83.21-2.18.29-4.35.59-6.53.12-.91,0-1.78.14-2.72l.18-1.14c.64-4.19.85-8.5,1.32-12.72C66,37.92,65.58,37.85,64.85,37.89Zm-8.25,3c.42.15,1.11,0,1.07.77a.71.71,0,0,1,0,.17.31.31,0,0,1-.12.17l0,0-.07,0,0,0a3.44,3.44,0,0,1-.56,0c-.41,0-.68-.08-.78-.37a1,1,0,0,1,0-.36C56,41.06,56.22,40.77,56.6,40.91Zm-3.28,0c.42,0,.93-.13,1,.55s-.26.76-.79.76-.9-.06-.9-.67S52.87,40.89,53.32,40.9Zm-3.4.08c.43,0,.93-.13.95.54s-.26.77-.79.77-.9-.06-.89-.67S49.47,41,49.92,41Zm.25,2.92c.73,0,.8.34.79.9s0,1.07-.72.89c-.72.11-1-.18-1-.8S49.44,43.92,50.17,43.9Zm.22,10.25c.75-.16.78.32.79.88s0,.92-.77.94-.94-.33-1-1S49.79,54.1,50.39,54.15Zm-1-2.35c0-.64,0-1.08.86-1.08.65,0,.9.19.86.84,0,.49.09,1.07-.73,1C49.83,52.61,49.41,52.51,49.39,51.8Zm1.87,6.59c0,.51.06,1-.74,1-.56.08-1,0-1-.75s0-1.07.87-1.07C51.07,57.53,51.29,57.75,51.26,58.39ZM46.62,41.05c.49,0,.89,0,.85.63s-.45.66-.9.68-.84-.23-.78-.78S46.22,41.06,46.62,41.05ZM46.68,44c.58,0,1,0,.86.65,0,.64.08,1.13-.7,1.16s-1-.23-1-.94S46.05,44,46.68,44Zm.21,6.85c.87-.17.83.38.85.89s-.16.9-.85.92c-.85,0-.89-.47-.91-1.08S46.39,50.74,46.89,50.84Zm-1-2.58c0-.66.22-.85.85-.87s1,.12.86.76.09,1-.69,1.06S45.92,49,45.9,48.26Zm-2.5,1c-.82,0-.88-.44-.9-1.06s.43-.72,1-.77c.76-.06.79.39.72.84C44.29,49,44.08,49.27,43.4,49.29Zm.89,2.4c0,.48.09,1-.69,1s-1-.21-1-.93.19-1,.86-.87C44.07,50.77,44.34,51,44.29,51.69Zm-1-10.43c.54-.22.7,0,.75.35.06.52-.1.85-.7.82-.37,0-.85.09-.92-.39C42.33,41.31,43.08,41.45,43.31,41.26Zm0,2.8c.62,0,1,.12.86.75s.08,1-.69,1.07-1-.24-1-1S42.64,44.07,43.27,44.06Zm.44,13.62c.8,0,.7.49.73,1s-.1,1-.75.84c-.77.11-.93-.27-1-.86C42.67,57.88,43,57.7,43.71,57.68Zm.12,12.08c-.67,0-.85-.27-.88-.87,0-.75.27-1,1-1s.71.49.72,1S44.48,69.75,43.83,69.76Zm.06-3.42c-.71,0-1-.18-1-.92s.2-.88.85-.91.94.17.86.78S44.69,66.32,43.89,66.34Zm-.07-3.4c-.73,0-1-.19-1-.93s.19-1,.87-.89c.66-.14.88.18.85.81S44.62,62.92,43.82,62.94Zm.57-7.78c0,.52,0,1.07-.78.94-.64.1-.92-.15-1-.8s.16-1,.93-1S44.42,54.59,44.39,55.16Zm2.37-.95c.61,0,1.13,0,1,.84.13.7-.13,1-.87,1s-1-.1-1-.88S46,54.18,46.76,54.21Zm.45,5.24c-.65,0-1.11-.07-1.08-.87,0-.54,0-1,.73-.93.63-.1,1,0,1,.73C47.79,58.83,48.05,59.42,47.21,59.45Zm0,1.56c.79,0,.73.47.73,1s-.15.84-.82.85-.86-.27-.89-.88S46.46,61,47.18,61Zm.42,8.62c-.42.07-1,.32-1.23-.45a1.63,1.63,0,0,1,0-1.09c.18-.33.84-.31,1.19-.37a.43.43,0,0,1,.25,0A.41.41,0,0,1,48,68a2.61,2.61,0,0,1,.08.37C48.16,68.89,48.17,69.54,47.6,69.63Zm.11-3.28a1,1,0,0,1-.37,0c-.33,0-1,0-1.15-.37s.2-.66.15-1c-.11-.63.53-.51.95-.56.85-.1.61.54.71,1S48.05,66.24,47.71,66.35Zm2.87-5.41c.79,0,.76.45.73.93.11.68-.15.91-.81.92s-.86-.26-.9-.87S49.87,61,50.58,60.94Zm0,3.42c.64,0,.94.16.87.76s.11,1-.69,1.07-1-.16-1-.91S49.87,64.39,50.53,64.36Zm.15,5.25c-.79,0-.92-.37-.93-1s.35-.86.93-.79c.74-.12.78.36.81.9S51.37,69.59,50.68,69.61Zm-.41-20.45c-.79,0-.92-.38-1-1s.32-.85.9-.79c.68-.12.86.21.84.83S51,49.12,50.27,49.16Zm3.22-5.33c.61,0,1,.11.87.76s.06,1-.71,1.06-1-.23-1-.95S52.86,43.85,53.49,43.83Zm.94,4.34c.07.6-.14.88-.82.89s-.88-.43-.9-1.05.44-.72,1-.77C54.45,47.17,54.45,47.64,54.43,48.17Zm.07,3.42c.08.6-.13.88-.81.9s-.89-.44-.91-1.06.44-.73,1-.78C54.53,50.58,54.52,51.06,54.5,51.59Zm-.37,17.9c-.77.14-.94-.22-1-.83s.28-1,1-1,.71.48.74,1S54.78,69.69,54.13,69.49Zm-1.2-11.11c0-.63.18-.9.85-.91s1,.13.87.76.11,1.05-.69,1.08S52.93,59.12,52.93,58.38Zm1.2,7.74c-.67,0-1.06-.12-1.05-.89,0-.6.15-.92.83-.94s1,.11.9.71S55,66.1,54.13,66.12ZM54,62.72c-.79,0-.94-.34-1-1s.33-.88.94-.82c.75-.15.78.33.8.89S54.71,62.71,54,62.72Zm.62-8c0,.66.1,1.15-.7,1.17s-1-.19-1-.93.21-.89.86-.9S54.74,54.13,54.58,54.72Zm2.31-11c.62,0,1,.11.87.75s.07,1-.7,1.07-1-.22-1-.94S56.26,43.77,56.89,43.76Zm.13,3.4c.71,0,.87.27.81.85s0,1-.75,1-.95-.32-1-1S56.44,47.2,57,47.16Zm.9,4.3c0,.55,0,1-.78.92-.63.1-.91-.16-1-.8s.16-1,.92-1S57.92,50.89,57.92,51.46Zm-.61,12.78c.59-.11,1,.05.9.75-.05.46.18,1-.65,1.05-.66,0-1.09-.07-1.08-.87C56.5,64.6,56.58,64.16,57.31,64.24Zm.22,5.22c-.59,0-1-.09-1-.79s.1-1,.9-1,.89.28.81.8S58.29,69.48,57.53,69.46Zm-.16-6.85c-.63.11-.93-.12-1-.78s.14-1,.92-1,.8.35.81.91S58.13,62.74,57.37,62.61Zm0-3.4c-.57.08-1-.05-1-.74s0-1.07.87-1.08c.67,0,.88.22.85.85S58.13,59.29,57.33,59.21Zm-.08-3.41c-.54.07-1,0-1-.74s0-1.07.86-1.08c.67,0,.91.2.86.84S58.08,55.89,57.25,55.8Z"/></svg>