<?xml version="1.0" encoding="utf-8"?>
<!-- Generator: Adobe Illustrator 23.0.4, SVG Export Plug-In . SVG Version: 6.00 Build 0)  -->
<svg version="1.1" id="aae808f5-d36b-42ff-8641-cd93285384f6"
	 xmlns="http://www.w3.org/2000/svg" xmlns:xlink="http://www.w3.org/1999/xlink" x="0px" y="0px" viewBox="0 0 100 100"
	 style="enable-background:new 0 0 100 100;" xml:space="preserve">
<title>_</title>
<path d="M52.3,74H20.5v1.6c10.1,1,20.4-0.2,30.6,0.5l0.3,1c-0.9,0.7-2,1.1-3.1,1.4c-10.4,0.1-20.7,0-30.2,0
	c-1.7-3.6-2.6-7.4-4.8-9.3s-5.7-1.8-9.3-2.8c0-3.6-0.3-8.4,0.1-13.1c0.4-4.4,4-7.6,8.2-7.2c0.4,0,0.8,0.1,1.2,0.2
	c9.1,2.5,18.1,5.5,26.9,9c3.4,1.4,5.9,4.9,9.1,7.6c2.6-4.1,3.7-9,3.1-13.9C50,28.3,67,15.1,85.2,23.1c3.6,1.6,5.1,3.5,4.9,7.8
	c-0.7,11.3-0.9,22.5-1.4,33.8c-0.1,3.2-0.2,6.1,3.9,6.5c1.3,0.4,2.4,1.3,3,2.5H77.1L76.7,73l7.9-3.8c0-7.9,0.1-16.4,0-24.8
	c-0.1-4.3-0.9-8.6-1.2-12.9c-0.3-3.6-2.1-5.8-5.5-6.2c-10.7-1.2-20.2,7-21.3,18.3c-0.1,1.5-0.1,3,0,4.5c0.8,5.3-0.1,10.8-2.6,15.5
	C52.3,66.6,49.3,69.2,52.3,74z M37.1,54.8l-22-7.1C17.8,54.2,30.8,58.7,37.1,54.8z M88.3,34L88.3,34c0.1-1.5,0.1-3,0-4.5
	c-0.1-0.8-0.9-1.5-1.3-2.3c-0.5,0.7-1.5,1.4-1.5,2.1c-0.2,3.3-0.2,6.6,0,9.9c0,0.7,1,1.4,1.5,2c0.5-0.7,1.3-1.4,1.3-2.2
	C88.4,37.3,88.4,35.6,88.3,34z"/>
<path d="M8.2,69.3c3.5,0.2,6.2,3.3,6.1,7c-0.1,3.7-3.1,6.6-6.6,6.4c-3.3-0.3-5.9-3.3-6-6.8C1.8,72.2,4.7,69.3,8.2,69.3z"/>
<path d="M74.3,76.2h24C96.3,79.2,76.1,79,74.3,76.2z"/>
</svg>
