<svg id="e174bc21-f387-47f8-aaa3-6c4eff7afb00" data-name="Capa 1" xmlns="http://www.w3.org/2000/svg" viewBox="0 0 100 100"><title>_</title><path d="M32,33H59V63H32Zm13.5,7.2H34.71a2.17,2.17,0,0,0-.36,0,.86.86,0,0,0-.75.86.83.83,0,0,0,.72.84c.16,0,.32,0,.48,0H56.08a3.88,3.88,0,0,0,.59,0,.82.82,0,0,0,.68-1,.86.86,0,0,0-1-.68Zm0,4.61H36.15c-.57,0-1.15,0-1.72,0a.83.83,0,0,0-.83.85.85.85,0,0,0,.82.86H56c.22,0,.44,0,.66,0a.86.86,0,1,0-.22-1.7Zm0,10.9h11a.85.85,0,0,0,.91-.85A.86.86,0,0,0,56.5,54H34.71a2.75,2.75,0,0,0-.41,0,.84.84,0,0,0-.56,1.3.91.91,0,0,0,.86.38Zm0,4.6H56.59a.84.84,0,0,0,.75-1.07c-.11-.43-.41-.62-1-.62H34.62a1.43,1.43,0,0,0-.29,0,.82.82,0,0,0-.72.68c-.1.57.31,1,1,1Zm0-10.88H34.37a.83.83,0,0,0-.77.75.86.86,0,0,0,.61.9,2.15,2.15,0,0,0,.51,0H56.26a2.07,2.07,0,0,0,.5,0,.85.85,0,0,0,.62-.89.84.84,0,0,0-.77-.76H45.49Zm0-13.82H34.39a.84.84,0,0,0-.79.81.8.8,0,0,0,.7.85,2.12,2.12,0,0,0,.44,0H56.13a3.23,3.23,0,0,0,.62,0,.84.84,0,0,0-.31-1.65Z"/><path d="M26.13,78c0-.11,0-.2,0-.28,0-1.24,0-2.47,0-3.71a1.34,1.34,0,0,1,1.31-1.39H63.21c1.15,0,1.64.48,1.64,1.62V78Z"/><path d="M28.41,63a5.26,5.26,0,0,1-3.68-.79,4.31,4.31,0,0,1-1.84-3.58V37.37A4.35,4.35,0,0,1,27.07,33c.44,0,.88,0,1.34,0Z"/><path d="M62.55,33.05c2.93-.39,4.75,1.1,5.36,3.14a4.81,4.81,0,0,1,.17,1.31q0,10.49,0,21A4.4,4.4,0,0,1,63.61,63H62.55Z"/><path d="M89,51.4H76.07V45.27H89Z"/><path d="M69,41.23a21.68,21.68,0,0,1,2.91,0,3.93,3.93,0,0,1,3.31,3.87q0,3,0,5.94a4,4,0,0,1-4,3.92H69Z"/><path d="M61.66,48V63a.91.91,0,0,1-.77,1,.89.89,0,0,1-1-.79,2.17,2.17,0,0,1,0-.36V33.21a4.35,4.35,0,0,1,0-.51.92.92,0,0,1,.91-.76.91.91,0,0,1,.86.81,3.2,3.2,0,0,1,0,.44Z"/><path d="M29.32,48V33.27a4.51,4.51,0,0,1,0-.52.88.88,0,0,1,.85-.81.86.86,0,0,1,.87.7,2.41,2.41,0,0,1,.05.54q0,14.82,0,29.62a2.14,2.14,0,0,1-.06.62.83.83,0,0,1-.89.6.85.85,0,0,1-.8-.73,2.13,2.13,0,0,1,0-.44Z"/><path d="M37.6,71.76h-4V63.87h4Z"/><path d="M53.39,63.86h3.92v7.89H53.39Z"/></svg>