<svg id="e1d3cc56-eda8-4f6d-a75a-44ab8ee8ba23" data-name="Capa 1" xmlns="http://www.w3.org/2000/svg" viewBox="0 0 100 100"><title>_</title><path d="M93.55,82.19H16.63c.36-.45.58-.75.83-1Q27.63,69.58,37.81,58c.36-.41.95-.61,1.33-1a22.62,22.62,0,0,0,1.65-2A4.54,4.54,0,0,0,41.16,54l4.17,3.25c-5.26,6.65-10.47,13.24-15.86,20H93.55Z"/><path d="M93.55,27.41H68.83v16.4l-.4,0c-.48-1.59-.15-3.25-.21-4.87s0-3.35,0-5V28.81l-.28-.14C61.74,36.5,55.55,44.32,49.27,52.24l-3.74-2.9a9,9,0,0,1,.58-.79q9.63-11,19.26-22a2.33,2.33,0,0,1,2-.91c14.73,0,11.46,0,26.2,0Z"/><path d="M50.8,54.8l-2.5,3.3c-.29-.19-.56-.35-.81-.53-.58-.45-1.13-1-1.74-1.36C40.44,52.7,36,48.39,33.42,42.47a3.83,3.83,0,0,0-.41-.61l-1.48.49c-.1-1.21-.2-2.35-.3-3.48a2.71,2.71,0,1,0-5.41.29v1.76l-8.49-.52,0,.52c1.87.15,3.75.32,5.63.46,1.63.12,3.27.2,4.9.31,2.4.18,3.46,1.19,3.69,3.58.4,4.11.79,8.23,1.14,12.35.21,2.47-1.28,4.1-3.53,4a3.24,3.24,0,0,1-3-3.13c-.28-3-.56-6-.77-9.05-.07-1-.35-1.34-1.37-1.38-2.53-.09-5.06-.36-7.59-.48-1.77-.09-3.18-.62-3.92-2.39-.87-2.09-1.37-4.16.26-6.12a6.16,6.16,0,0,1,1.55-1.37A28.91,28.91,0,0,1,29,33.32a6.23,6.23,0,0,1,5.88,3.32q2.79,4.83,5.68,9.61A6.2,6.2,0,0,0,42,47.89C44.87,50.19,47.78,52.44,50.8,54.8Z"/><path d="M46.27,40.31a5.65,5.65,0,0,1-6.73.85,5.94,5.94,0,1,1,8.65-6.53A3.93,3.93,0,0,0,49,35.94c.85,1.09,1.8,2.11,2.58,3.24a1.5,1.5,0,0,1,0,1.42,1.65,1.65,0,0,1-1.44.19,13.37,13.37,0,0,1-6.92-5.6c-.11-.17-.2-.35-.34-.6C42.81,36,43.33,36.86,46.27,40.31Z"/><path d="M19.5,51.35l-4.2-3.09.06-.22,9.24.67.72,7.65-8,2.72c-.89.3-1.78.61-2.68.87a3.29,3.29,0,0,1-4.15-2.08,3.24,3.24,0,0,1,2.07-4.15C14.76,52.91,17,52.19,19.5,51.35Z"/><path d="M32.44,48.5c2.45,1.53,4.69,2.87,6.86,4.3a2,2,0,0,1,.57,2.91,2.06,2.06,0,0,1-2.82.61c-1.24-.71-2.45-1.47-3.64-2.27a1.38,1.38,0,0,1-.5-.87C32.73,51.72,32.61,50.26,32.44,48.5Z"/><path d="M66,68.55c-1-.13-2-.29-3-.4a3.94,3.94,0,0,0-1.37,0c-2.08.51-4.11,0-6.15-.09s-4,.62-6,.16a6.3,6.3,0,0,0-1.84,0c-.93.07-1.85.21-2.78.31l-.1-.48,4-1.13c1.68,1.2,5,1.2,6.57-.17,2.28,1.37,5.25,1.37,6.73.16L66.06,68Z"/><path d="M76.55,68l2-1.06a1.87,1.87,0,0,0,3.26-.21,1.85,1.85,0,0,0,3.31.06,7.74,7.74,0,0,0,1,.82,3.58,3.58,0,0,1,.94.5c-.44.56-.89.27-1.34.15a1.55,1.55,0,0,0-1,0c-1,.42-2-.23-2.9-.19s-1.87.55-2.84.19a2.32,2.32,0,0,0-1.08,0c-.43,0-.85.14-1.28.22Z"/><path d="M53,52.37l2.35,1.79a10.11,10.11,0,0,0-1.28,1.13c-1.51,1.93-3,3.9-4.47,5.85-.5.65-1.05,1.29-1.92.64s-.43-1.35.08-2c1.44-1.89,2.89-3.77,4.3-5.67A14.2,14.2,0,0,0,53,52.37Zm-2.28,4.27c-1,1.28-1.93,2.49-2.81,3.76-.15.22,0,.69.08,1,.32-.08.77,0,.94-.25,1-1.21,1.92-2.47,2.91-3.76Z"/><path d="M26.59,40.87c-.06-.57-.17-1.17-.19-1.77a2.16,2.16,0,0,1,1.93-2.3,2.06,2.06,0,0,1,2.23,1.82c.16,1,.19,2.1.27,3.11Z"/><path d="M82.52,49.09l2-1a1.89,1.89,0,0,0,3.25-.22A1.87,1.87,0,0,0,91,48l2,1.09,0,.46-1.46-.5c-.19,0-.39-.16-.56,0A2.39,2.39,0,0,1,88,49a.45.45,0,0,0-.5,0,2.42,2.42,0,0,1-2.89,0c-.17-.11-.37,0-.55,0-.5.15-1,.34-1.47.51Z"/><path d="M66,56l3.85-1c1,1.12,5.49,1.15,6.72-.22,1.61,1.37,5.26,1.37,6.57.2l4,1.05,0,.42a14.33,14.33,0,0,1-2.55-.3,4.72,4.72,0,0,0-2.18,0,21.09,21.09,0,0,1-4.83,0,3.41,3.41,0,0,0-2,0,4.76,4.76,0,0,1-1.92.31c-2.38,0-4.76-.81-7.14,0-.14,0-.35-.08-.52-.13Z"/><path d="M80.4,35.44a1.89,1.89,0,0,0,3.27-.16,1.9,1.9,0,0,0,3.26.18l1.86,1,0,.34c-.47-.16-.93-.35-1.4-.48a.84.84,0,0,0-.66,0,2.5,2.5,0,0,1-2.73,0c-.2-.12-.44,0-.66,0l-2.61.06a4.59,4.59,0,0,0-.83,0c-.45.09-.88.26-1.33.39l0-.31Z"/></svg>