<svg id="a4a6f142-7d11-4dae-9a90-7b4fab7f9c00" data-name="Capa 1" xmlns="http://www.w3.org/2000/svg" viewBox="0 0 100 100"><title>_</title><path d="M80.43,59.61V79.55H31.11c-.2-.69-.75-1.57-.51-2s1.25-.66,2-.85a5.12,5.12,0,0,1,1.36,0c3.23,0,3.23,0,4.24-3.34-4-1.64-5.15-5-4.91-9,.07-1.1,0-2.21,0-3.31a3.13,3.13,0,0,0-1.38-3.12,4,4,0,0,1-.18-6.29c1.55-1.15,1.56-2.45,1.56-4,0-6.43,2-8.7,8.35-9.31.11,0,.22-.12.46-.26,0-1.29,0-2.65,0-4a4.3,4.3,0,0,1,3.11-4.25c2-.6,3.5.12,4.87,1.6a3.5,3.5,0,0,0,2.19,1.08c5.67.09,11.34,0,17,0,5.34,0,8.19,2.84,8.22,8.2s0,10.8,0,16.2c0,.68.09,1.36.12,1.88Zm-5.9-.69c0-6.6.08-13.1,0-19.59,0-2.36-2-3.9-4.53-3.94-3.65,0-7.3,0-11,0H51v2.68a3.61,3.61,0,0,0,.63.23c6,.68,8.06,3,8.06,9,0,.45,0,.91,0,1.36a2.47,2.47,0,0,0,1.18,2.57c2.17,1.54,2.46,4.89.41,6.43-1.53,1.15-1.66,2.41-1.59,4,0,1,0,1.95,0,2.92.29,4-1.1,7.14-5.27,8.94.81,1.12,1.37,2.76,2.29,3,1.81.46,3.81.14,5.91.14V68.14c0-3.12.1-3.22,3.14-3.22,1.88,0,3.75,0,5.47,0C72.5,62.78,69.67,58.86,74.53,58.92Zm-17.82.29H36.2V60.9c0,1.89-.06,3.78,0,5.66a4.06,4.06,0,0,0,4,4.08c4.16.16,8.34.16,12.5,0,2.44-.09,3.88-1.72,4-4.22C56.8,64.1,56.71,61.76,56.71,59.21Zm-.05-9.07c0-1.76.12-3.39,0-5a4.06,4.06,0,0,0-4-3.85q-6.24-.16-12.49,0A4.07,4.07,0,0,0,36.28,45c-.16,1.66,0,3.34,0,5.1Zm9,17.77v8.62H77.35V67.91ZM46.37,56.1c3.64,0,7.29,0,10.94,0,1.1,0,2.28-.05,2.3-1.44s-1.18-1.47-2.26-1.47H35.67c-1.06,0-2.29-.06-2.3,1.43s1.15,1.48,2.26,1.48Zm6.31,20.41c-.54-1.88-1.17-3.17-3.43-2.87a22.5,22.5,0,0,1-5.44,0c-2.25-.25-3.09.86-3.49,2.87ZM47.94,38.23a23.76,23.76,0,0,0-.07-4.09c-.12-.61-1-1.08-1.48-1.61-.46.53-1.21,1-1.3,1.6a27.74,27.74,0,0,0-.07,4.1ZM77.37,62.08H74.68V64.8h2.69Z"/></svg>