<?xml version="1.0" encoding="utf-8"?>
<!-- Generator: Adobe Illustrator 23.0.4, SVG Export Plug-In . SVG Version: 6.00 Build 0)  -->
<svg version="1.1" id="eee27abc-b6f2-45de-bbc0-9b657138e8be"
	 xmlns="http://www.w3.org/2000/svg" xmlns:xlink="http://www.w3.org/1999/xlink" x="0px" y="0px" viewBox="0 0 100 100"
	 style="enable-background:new 0 0 100 100;" xml:space="preserve">
<title>_</title>
<path d="M31.7,92.3l-0.9-0.2c-2.1-0.5-3.6-2.5-3.5-4.7c0.4-5.7,0.8-11.4,1.4-17.1c0.2-2.9-0.1-5.7-0.9-8.5c-0.5-2.1-1-4.2-1.6-6.2
	c-0.1-0.3-0.2-0.6-0.5-0.7c-2.6-1.2-4.3-3.7-4.4-6.5c-0.9-6.6-0.2-13.3,2.1-19.5c0.8-3.1,3.2-5.5,6.2-6.4c2.2-0.8,4.5-0.1,6,1.7
	c2.6,2.9,5.2,5.7,7.9,8.5c0.9,0.8,1.9,1.5,3,2c-0.1,1.4,0,1.6,1.3,2.1l-0.1,0.7c-2,0.2-3.8,0.4-5.7,0.7c-0.8,0.2-1.6-0.1-2.1-0.8
	c-1.2-1.4-2.5-2.7-3.8-4.1l-0.5,1.8l-1-4c-0.2-0.6-0.3-1.2-0.5-1.7c-0.5-2-2.6-3.2-4.6-2.6c0,0,0,0-0.1,0c-2,0.5-3.1,2.5-2.7,4.4
	c1,4.3,2.1,8.6,3.2,12.8c0.4,1.6,1.9,2.8,3.6,2.7h0.6c0,1,0.1,1.9,0.2,2.9c0.6,2.9,1.2,5.8,1.8,8.7c0.5,2.2,1.2,4.3,1.6,6.5
	c0.2,1.8,0.2,3.6,0,5.4c-0.4,5.3-0.8,10.7-1.2,16c0,0.6-0.1,1.2-0.2,1.9c-0.3,2-1.8,3.5-3.7,3.9L32,92.3L31.7,92.3z"/>
<path d="M67,89.8c0.2,0.1,0.4,0.2,0.5,0.3c0.1,0.1,0.5,0.7,0.4,1.1c-0.1,0.3-0.5,0.6-0.8,0.8c-0.3,0.2-0.4,0-0.6,0H46.6
	c-0.2,0-0.4,0-0.5,0c-0.1,0-0.8-0.5-0.9-0.8c-0.1-0.3,0.3-0.7,0.5-1.1s0.4-0.5,0.4-0.7c-0.4-5.8-0.9-11.5-1.4-17.3l-1.1-13.9
	c0-0.2,0-0.4,0-0.7h25.9L67,89.8z"/>
<path d="M43.1,25c-4.6,0-8.2-3.8-8.2-8.3c0-4.6,3.8-8.2,8.3-8.2c4.6,0,8.2,3.8,8.2,8.3c0,0,0,0,0,0C51.3,21.4,47.6,25,43.1,25z"/>
<path d="M36,39.8l6.3-0.8c1.4-0.3,2.8-0.4,4.2-0.5c1.3,0,2.6,0.2,3.8,0.6c1.5,0.6,2.2,2.3,1.5,3.8c-0.5,1.1-1.6,1.8-2.9,1.8
	c-2.7-0.6-5.2,0.2-7.8,0.5c-2.3,0.2-4.5,0.6-6.8,0.9c-1.6,0.4-3.2-0.6-3.6-2.2c0-0.1-0.1-0.2-0.1-0.4c-1-4-2-8-3-11.9
	c-0.6-1.5,0.2-3.2,1.7-3.8s3.2,0.2,3.8,1.7c0.1,0.2,0.1,0.4,0.2,0.6C34.4,33.3,35.2,36.5,36,39.8z"/>
<path d="M81.9,83.3c1,1.9,1.9,3.8,2.9,5.7c0.5,0.7,0.2,1.7-0.5,2.1c-0.3,0.2-0.6,0.2-0.9,0.2c-0.7,0-0.9-0.4-1.2-0.9l-6.3-12.3
	l-5.6-11c-0.4-0.8-0.1-1.7,0.6-2.1c0.3-0.1,0.5-0.2,0.8-0.2c0.5,0.1,0.9,0.4,1.1,0.8c0.9,1.7,1.8,3.4,2.6,5.1
	c0.1,0.3,0.3,0.5,0.5,0.5c1-0.1,2-0.2,2.9-0.1c1.1,0.2,2,0.9,2.4,1.9l2.5,4.8c1.1,1.7,0.5,4-1.2,5c-0.1,0.1-0.2,0.1-0.3,0.2
	L81.9,83.3z M76.6,72.9l4.7,9c1.1-0.3,1.8-1.5,1.5-2.6c0-0.2-0.1-0.3-0.2-0.5c-0.9-1.8-1.7-3.5-2.7-5.2c-0.5-1-1.8-1.5-2.8-0.9
	C76.9,72.7,76.7,72.8,76.6,72.9z"/>
<path d="M54.8,48.1h-1.3c-2.1,0-4.3,0-6.4,0c-0.5,0-1.1,0.2-1.2-0.5c0-0.2,0.6-0.5,0.9-0.8l0.2,0.2l0.3-1.7c0.7,0.1,1.5-0.1,1.8,0.8
	c0.2,0.2,0.5,0.4,0.8,0.3c0.3,0,0.5-0.4,0.7-0.7c0.2-0.2,0.4-0.7,0.7-1c1.5-1.2,1.9-3.4,0.9-5c-0.3-0.4-0.4-0.9-0.4-1.4
	c0-0.3-0.2-0.7-0.5-0.9c-0.2-0.1-0.8-0.1-0.9,0c-0.6,0.8-1.3,0.4-2,0.3l0.2-1.7c-0.3,0-0.7,0-1-0.1c-0.2-0.1-0.4-0.3-0.5-0.5
	c0-0.1,0.3-0.4,0.5-0.5c0.2,0,0.4,0,0.6,0h14.2c0.1,0,0.3,0,0.4,0c0.2,0.2,0.4,0.3,0.7,0.5c-0.2,0.2-0.4,0.4-0.7,0.6
	c-0.1,0-0.3,0-0.6,0V38h-8.3v4.4c0,1,0,1.9,0,2.9C54.3,46.3,54.6,47,54.8,48.1z"/>
<path d="M61.2,39.8h-1.1c0,0.9,0,1.9,0,2.8c0,0.3,0.2,0.7-0.4,0.8c0,0-0.1,0.4-0.1,0.6c0,0.7,0,1.4,0,2.1h-1.9c0-0.6,0-1.1,0-1.7
	c0-0.6,0.3-1-0.5-1.1c0,0-0.1-0.4-0.1-0.6v-2.9H56v6.4c-0.5,0-0.9,0.2-0.9-0.4v-6.8h6.9v5.6c-0.1,0.8,0.2,1.5,0.8,2.1
	c0.9,1.2,1.7,2.5,2.2,4c0.3,0.6-0.1,1.2-1.1,1.9c0-0.5,0-0.8,0-1.1c0.1-0.4,0.1-0.7,0-1.1c-0.4-0.9-0.9-1.9-1.5-2.7
	c-0.2-0.3-0.7-0.4-0.9-0.6c-0.3-0.2-0.6-0.4-0.6-0.6c0-1.4,0.1-2.7,0.2-4C61.3,41.4,61.2,40.6,61.2,39.8z"/>
<path d="M63,41.3c-0.2-1.3,0.2-1.7,1.3-1.8c0.3,0,0.6-0.3,0.9-0.4c0.2-0.1,0.4-0.1,0.6-0.1c0.9-0.1,1.7-0.1,2.6,0
	c2.5,0.9,5.1,0.2,7.7,0.5c0.1,0,0.2,0.1,0.3,0.2c-0.9,1-2.2,1.5-3.5,1.6c-1.1-0.2-2.2-0.2-3.3,0.1c-1,0.3-2.1,0.4-3.2,0.4
	c-0.5,0-1,0.2-1.4-0.4c0-0.1-0.4,0-0.5,0L63,41.3z"/>
<path d="M59.4,51.4c-0.4,0.7-1,1.4-1.6,2c-0.6,0.5-2.7-0.7-2.8-1.6c0.2-1,0.7-1.9,1.6-2.5C57.5,49.1,59.4,50.4,59.4,51.4z M57,49.7
	c-0.6,0-1.5,1.1-1.4,2c0,0.5,1.2,1.4,1.9,1.4s1.6-1.2,1.6-1.9C59,50.4,57.7,49.7,57,49.7z"/>
<path d="M56.4,56.6c-0.2-0.9,0.5-1.8,1.4-2c0.2,0,0.5,0,0.7,0c0.4,0.1,0.9,0.1,1.3-0.1c0.8-0.4,1.7-0.1,2.1,0.7
	c0.2,0.3,0.2,0.7,0.1,1.1c0,0.2-0.2,0.3-0.3,0.4c-0.1-0.1-0.3-0.2-0.3-0.4c-0.4-1.3-0.9-1.5-2.2-1.1c-0.1,0-0.2,0-0.3,0
	c-1.3-0.2-1.6,0-2.1,1.2c-0.1,0.1-0.1,0.3-0.1,0.5L56.4,56.6z"/>
<path d="M60.7,53.8c-0.3-0.3-0.5-0.7-0.6-1c-0.1-0.5,0.3-0.9,0.9-0.9c0.4-0.1,0.8,0.3,0.9,0.7c0,0.1,0,0.2,0,0.2
	c0,0.4-0.5,0.7-0.7,1L60.7,53.8z"/>
<path d="M61.5,49.5c-0.3,0.2-0.7,0.6-1,0.7c-0.4,0.1-0.8-0.2-0.9-0.6c0-0.1,0-0.1,0-0.2c0-0.6,0.4-1,0.9-0.9c0.6,0.1,0.7,0.5,1,0.7
	V49.5z"/>
<path d="M54.2,55c-0.2-0.3-0.4-0.5-0.4-0.7c0-0.2,0.3-0.3,0.5-0.5c0.1,0.2,0.4,0.3,0.4,0.5S54.4,54.7,54.2,55z"/>
<path d="M62.7,54.2c0.3-0.2,0.5-0.5,0.6-0.5c0.2,0,0.5,0.2,0.4,0.4c0,0.2-0.2,0.4-0.4,0.5C63.3,54.6,63.1,54.4,62.7,54.2z"/>
</svg>
