<svg id="ebba881f-086e-416d-9152-79d0a36e9ba3" data-name="Capa 1" xmlns="http://www.w3.org/2000/svg" viewBox="0 0 100 100"><title>_</title><path d="M36.67,30.75c.15.91.29,1.84.46,2.76A71.34,71.34,0,0,0,42.61,50.8a65.15,65.15,0,0,0,6.28,10.82.63.63,0,0,0,.82.28,5.88,5.88,0,0,0,3.63-3l.14-.25h.05a6,6,0,0,0,10.85.1,25.19,25.19,0,0,0,1.82,2.09A4.86,4.86,0,0,0,68.83,62V55.75H71.5c0,.17,0,.34,0,.52v8.92c0,3.09,0,6.17-.06,9.25a6.56,6.56,0,0,1-5.83,6c-.54,0-1.09.06-1.63.06H20.66a6.68,6.68,0,0,1-6.76-5.22,6.18,6.18,0,0,1-.16-1.42q0-8.85,0-17.7c0-.13,0-.26,0-.41H16.4V62c1.63-.1,3.36-1.45,4.38-3.43a6,6,0,0,0,10.92,0,6,6,0,0,0,4.82,3.55C30.37,52.49,27.34,42,26.25,30.75Zm27.8,31.92c-3.67,2.65-7.32,2.64-10.91,0l-2.65,1.53a53.89,53.89,0,0,0,10.59,10l-.17,0H48.14a1.16,1.16,0,0,1-.62-.22,30.57,30.57,0,0,1-5.18-4.59c-1-1.05-1.91-2.14-2.85-3.23-.39-.46-.73-1-1.12-1.43a.68.68,0,0,0-.45-.18c-.77,0-1.55,0-2.31-.12a7.84,7.84,0,0,1-3.9-1.84,8.52,8.52,0,0,1-5.48,2,8.33,8.33,0,0,1-5.45-2,8.62,8.62,0,0,1-4.37,1.94V65c0,2.91,0,5.82,0,8.73a4,4,0,0,0,4.07,4.08H64.72a4.71,4.71,0,0,0,1.12-.14,4,4,0,0,0,3-4l.06-7c0-.71,0-1.41,0-2.09A9,9,0,0,1,64.47,62.67ZM28,32.29l.2,1.57A71.3,71.3,0,0,0,31.9,49.11a59.62,59.62,0,0,0,6.25,12.5c.21.33.42.42.75.25a16.72,16.72,0,0,0,1.83-1,5.47,5.47,0,0,0,1.88-2.37,6,6,0,0,0,4.53,3.54c0-.06,0-.08,0-.09a1.75,1.75,0,0,0-.18-.29,68.61,68.61,0,0,1-7.9-15.14A71.65,71.65,0,0,1,35.4,32.92c-.09-.55-.27-.65-.76-.64-2,0-4,0-6.05,0Z"/><path d="M44.07,38.67c0-1.2,0-2.17-.07-3.06h1.53l.07,1.61h0A3.69,3.69,0,0,1,49,35.4c2.27,0,4,1.92,4,4.76,0,3.37-2,5-4.26,5a3.27,3.27,0,0,1-2.88-1.47h0v5.09H44.07Zm1.69,2.5a3.84,3.84,0,0,0,.08.7,2.62,2.62,0,0,0,2.55,2c1.8,0,2.85-1.47,2.85-3.62,0-1.88-1-3.49-2.79-3.49a2.73,2.73,0,0,0-2.58,2.11,3.29,3.29,0,0,0-.11.7Z"/><path d="M55.09,31.23H56.8v5.85h0a3.13,3.13,0,0,1,1.22-1.2,3.49,3.49,0,0,1,1.74-.48c1.26,0,3.27.77,3.27,4V45h-1.7V39.6c0-1.51-.56-2.79-2.17-2.79a2.46,2.46,0,0,0-2.29,1.71,2.18,2.18,0,0,0-.11.81V45H55.09Z"/><path d="M21.38,52.24a5.91,5.91,0,0,1-2.54.51,4.21,4.21,0,0,1-4.41-4.52,4.49,4.49,0,0,1,4.75-4.7,5.38,5.38,0,0,1,2.24.46l-.37,1.24a3.73,3.73,0,0,0-1.87-.42,3.06,3.06,0,0,0-3.12,3.35,3,3,0,0,0,3.07,3.31,4.64,4.64,0,0,0,2-.44Z"/><path d="M23.26,39.58h1.61v13H23.26Z"/></svg>