<svg id="b293ceaf-3395-45e0-b852-6d62836f64de" data-name="Capa 1" xmlns="http://www.w3.org/2000/svg" viewBox="0 0 100 100"><title>_</title><path d="M20.11,56.57a13.41,13.41,0,0,1,6.68-.52c1.71.24,1.87.51,1.65,2.21-.27,1.93-.55,3.87-.73,5.81a1.38,1.38,0,0,1-1.41,1.48,15,15,0,0,1-1.9.1c-3.52-.14-3.26,0-3.48-3.28l3.14-1.78-.14-.22-3,1.5-.77-4.2Zm1,.39a9.29,9.29,0,0,0,6.59,0A8.88,8.88,0,0,0,21.09,57Z"/><path d="M32.1,76.69,54.35,51.28l2.26,1.29L40,73.61h49.7v3.08Z"/><path d="M37,48.9c-1.67-1.43-3.3-2.93-5-4.29a3.42,3.42,0,0,1-1.33-3.84,30,30,0,0,1,1.14-3.63,1.5,1.5,0,0,0-.31-1.91c-1.25-1.25-1.16-1.94.2-3.12a7,7,0,0,1,7.32-.5c1.3.85,1.34,2.75,0,4.38,0-.72,0-1.34-.11-1.94a1.58,1.58,0,0,0-1.71-1.58,1.49,1.49,0,0,0-1.56,1.69c.14,2.79.35,5.58.55,8.37,0,.19.22.37.35.54a1.14,1.14,0,0,0,.32.26c5.63,2.87,6.77,8.47,8.29,13.82a2,2,0,0,1-1.33,2.49,1.9,1.9,0,0,1-2.47-1.32C40.48,56,39.71,53.58,39,51.18A3.27,3.27,0,0,0,37,48.86Z"/><path d="M60.68,60.41c-.56-.85-1.12-1.71-1.7-2.55S57.67,56,57,55c2.41-.28,4.86.52,7.32,1.13l.12-.37L44.7,44.8l.15-.39a8.18,8.18,0,0,1,1.31.48c5.88,3.26,11.73,6.55,17.62,9.78a5.5,5.5,0,0,0,2,.48A12.53,12.53,0,0,1,74.74,60a1.22,1.22,0,0,1-.17,1.8,8.48,8.48,0,0,1-11.36,1l1.91.29c-1.89-1.7-1.89-1.7-2.74-1.23l.39.54-2.13-2,1.92,1.07.3-.49L60.48,59l-.23.3Zm12.66.8c.24-.13.63-.22.72-.44a1,1,0,0,0-.19-.84,12.59,12.59,0,0,0-7.44-4.12.89.89,0,0,0-.78.34,1,1,0,0,0,.19.85A13.44,13.44,0,0,0,73.34,61.21Zm-2.89-.27-3.09.59.12.53C68.53,61.92,69.81,62.62,70.45,60.94ZM59.58,55.57c.44.84.44,2,1.94,1.73C61.3,56.25,61,55.36,59.58,55.57Zm8.7,8.33,0-.4-2.87-.4,0,.42C66.35,63.86,67.28,64.33,68.28,63.9ZM72,63.34l-.24-.5-3,1,.18.51Zm-7.08-5.56.36-.77-1.92-.71-.27.58Zm-1.65-.59-1.46-1.51-.32.32C61.85,56.63,61.7,57.76,63.27,57.19Zm3.22,5.28a2.71,2.71,0,0,0,2.93.42v-.42Zm1.09-1.64-2.3-.18,0,.49C66,61.25,66.6,62.39,67.58,60.83Z"/><path d="M37,48.86a2.82,2.82,0,0,1,.58,2.84,17.64,17.64,0,0,1-2.84,7,2,2,0,0,1-2.73.67,1.91,1.91,0,0,1-.67-2.73c2-3.11,3-6.4,2-10.31L37,48.9Z"/><path d="M63.14,44.32,58.25,50.5,56.1,49.3c2-2.3,4-4.56,6-6.76a1.68,1.68,0,0,1,1.12-.29q12.72,0,25.45,0a3.29,3.29,0,0,1,1.15.53,3.43,3.43,0,0,1-1.19.48c-7.67,0-15.33,0-23,0H63.85V50.5h-.32v-6Z"/><path d="M42.17,27.88l2.73,1.39a3.38,3.38,0,0,1-4.62,2,3.61,3.61,0,1,1,3.29-6.4c1.07.64,2.18,1.19,3.23,1.86A7.3,7.3,0,0,1,48,27.87c-.55.21-1.12.65-1.64.6-1.37-.13-2.72-.47-4.08-.73Z"/><path d="M35.92,37.3c0-.91,0-1.82,0-2.73s.22-1.7,1.25-1.74,1.27.69,1.3,1.56c0,1.46.05,2.92.21,4.36A1.84,1.84,0,0,0,39.55,40c1.42.7,2.91,1.24,4.37,1.85.83.35,1.46.88,1,1.88s-1.15.87-2,.52c-1.79-.76-3.57-1.54-5.39-2.22a1.92,1.92,0,0,1-1.44-2.15c.07-.86,0-1.73,0-2.59Z"/><path d="M59.87,67.27c.51.12,1,.23,1.52.37a11.88,11.88,0,0,0,1.53.5c1.85.3,3.73.49,5.58.85a3.11,3.11,0,0,0,2.64-.53,11.72,11.72,0,0,1,3.23-1.28,11.45,11.45,0,0,1,2.93-.5,30,30,0,0,0-2.89.81c-1.2.47-2.31,1.18-3.52,1.61a6,6,0,0,1-2.46.29,52.59,52.59,0,0,1-5.6-.72,19.65,19.65,0,0,1-3-1Z"/><path d="M54,70.73a17.51,17.51,0,0,1,2.91-1.13c.38-.07.92.6,1.39.94-.38.47-.74,1.31-1.15,1.33a15,15,0,0,1-3.08-.41Z"/><path d="M59,64.94a28.17,28.17,0,0,1-3.3.86,9.46,9.46,0,0,1-2.54-.12c-.76-.1-1.5-.29-2.25-.44l0-.4a4.7,4.7,0,0,1,1.57-.11c1.49.42,2.87.87,4.45.06C57.49,64.48,58.48,64.89,59,64.94Z"/><path d="M24.93,33.07l6.55,3.65-.3.54-6.57-3.64Z"/><path d="M80.07,47.45a42.29,42.29,0,0,0-6-.3c-1.49.12-2.92.47-4.36-.13-.06,0-.11-.1-.12-.1H80.08Z"/><path d="M72.9,66.08a13.48,13.48,0,0,1-7.83,0Z"/><path d="M63.35,70.51c.33-.26.72-.78,1-.72a4.17,4.17,0,0,1,1.26.88c-.27.32-.54.88-.82.89A3.77,3.77,0,0,1,63.38,71Z"/><path d="M58.32,59.1c-.6.53-1.08,1.07-1.17,1a10.31,10.31,0,0,1-1.27-1.21c.27-.23.58-.68.79-.64A7.51,7.51,0,0,1,58.32,59.1Z"/><path d="M84.65,59.35a9.45,9.45,0,0,1-1.49,1.16,1.72,1.72,0,0,1-1.14,0,.84.84,0,0,1-.26-.67,2.12,2.12,0,0,1,1-.72A7.48,7.48,0,0,1,84.65,59.35Z"/><path d="M78.6,54.49A6.32,6.32,0,0,1,79.34,56c0,.18-.66.71-.82.63a6,6,0,0,1-1.28-1Z"/><path d="M64.88,52.41a7.35,7.35,0,0,1,1.78.23c.28.11.38.68.56,1-.38.11-.86.43-1.12.3a6.69,6.69,0,0,1-1.38-1.14Z"/><path d="M89,62.47l-.31,1.88-.8-.15.43-1.86Z"/></svg>