<svg id="b42bd12b-8030-46a7-919d-64b66651848d" data-name="Capa 1" xmlns="http://www.w3.org/2000/svg" viewBox="0 0 100 100"><title>_</title><path d="M47.22,74.1c-2.91-1.31-3.28-3.62-3.2-6.39.15-5.11.17-10.23,0-15.34,0-1.3-1.17-2.5-2.07-3.59L32.66,37.5q-2.89-3.53-5.8-7c-.47-.57-1-1.16-.66-1.93s1.16-.72,1.87-.72H67.42c.72,0,1.54-.09,1.89.7s-.22,1.35-.67,1.92Q61.07,40,53.51,49.55c-.4.5-.79.83-1.36.43-.74-.52-.1-1,.18-1.38q4-5.12,8-10.17l7.22-9.09H28.2c.23,1.06,1,1.6,1.61,2.29,4.33,5.31,8.63,10.65,13.07,15.87a11.1,11.1,0,0,1,2.64,7.29c.09,4.48.24,9-.06,13.45-.16,2.59,1.31,3.6,3,4.68,2.82,1.75,6,1.06,9,1.17.36,0,.69-.06.66-.52s.23-1-.44-1.27c-.87-.35-1.72-.74-2.58-1.1s-.94.43-1.27.77c-1.13,1.2-2,.69-2.94-.25s-1.51-1.8-.31-2.93c.48-.46,1.29-.88.56-1.74s-.24-3-2.44-2.66c-1.59.21-1.73-1-1.73-2.18s0-2.28,1.65-2.28c.73,0,1.67.28,1.79-.9s1.92-2.29.13-3.59c-1-.72-.76-1.6,0-2.42s1.63-1.81,2.87-.77a2.4,2.4,0,0,0,3,.31c1.12-.56,2-.92,1.75-2.41-.09-.62.17-1.31,1.19-1.1a4.15,4.15,0,0,0,1.63-.13c1.32-.27,1.77.48,1.65,1.56s.44,1.57,1.44,2c1.18.45,2,1.14,3.27-.23.71-.79,2.11-.25,2.9.78.66.86,1,1.67,0,2.57-.42.38-1.31.81-.61,1.59s.17,3,2.36,2.81c1.65-.17,1.91.88,1.88,2.21s-.32,2.44-2,2.25c-1-.12-1.29.31-1.59,1.2-.44,1.32-1.26,2.38.33,3.69,1.07.89-.13,1.86-.86,2.6s-1.47,1.18-2.44.34c-.45-.38-.74-1.24-1.35-1.09a13.64,13.64,0,0,0-3,1.3c-.44.23-.26.81-.19,1.22.11.66.69.41,1.08.41,3.26,0,6.53,0,9.79,0,.39,0,.78,0,1.17,0s.91.2.93.74-.42.74-.9.78-.77,0-1.16,0q-23.66,0-47.32,0c-.73,0-2,.46-2-.73s1.25-.78,2-.78C33.28,74.08,40.25,74.1,47.22,74.1Zm6.26-17.82a11.68,11.68,0,0,0-1.29,2.61,2.68,2.68,0,0,1-2.74,2.51c-.66,0-1,.15-1,.92s.68.66,1.1.59c1.53-.25,2.09.51,2.29,1.87a3.16,3.16,0,0,0,.65,1.51c1,1.26.93,2.28-.42,3.21-.35.25-.9.61-.23,1.13.44.35.88.49,1.22-.09,1-1.64,2.15-1.11,3.39-.37a3.68,3.68,0,0,0,1.21.51c1.44.29,2.47.84,2,2.6-.11.49.08.82.71.83s.81-.33.7-.83c-.37-1.78.51-2.45,2.14-2.63A3,3,0,0,0,64.8,70c1.1-.94,2-.8,2.8.34.28.36.58,1,1.29.35s.22-1-.21-1.29c-1.24-.87-1.41-1.79-.36-2.94a2.67,2.67,0,0,0,.53-1.2c.31-1.56.86-2.73,2.8-2.32.54.11.75-.22.77-.77s-.29-.82-.8-.71c-1.72.35-2.52-.37-2.66-2.07A2.46,2.46,0,0,0,68.37,58c-1.07-1.26-.93-2.28.44-3.19.34-.23.74-.53.2-1s-.79-.63-1.18,0c-1,1.52-2.12,1.42-3.4.37a2.27,2.27,0,0,0-1.06-.44c-1.65-.21-2.64-.87-2.21-2.74.11-.5-.1-.83-.72-.81s-.8.22-.68.67c.57,2.27-.95,2.67-2.6,3-.42.09-1,.15-1.21.43-1.16,1.38-2,.67-2.84-.33-.32-.38-.6-.76-1.16-.18s-.08.84.24,1.18Z"/><path d="M51.58,79.7h2.85c.52,0,1.06,0,1.1.71s-.57.84-1.14.85H45.93c-.49,0-1.06,0-1.11-.71s.55-.82,1.13-.85a5,5,0,0,0,2.47-.33c-1.36-.56-2.77-.26-4.15-.35-.49,0-1,0-1.49,0s-1-.2-1-.87.52-.67,1-.68c1.5,0,3,0,4.48,0,3.16,0,6.31,0,9.46,0,.57,0,1.38-.18,1.41.72s-.84.82-1.46.83c-1.7,0-3.39,0-5.09,0Z"/><path d="M38.72,79H37.9c-.63,0-1.34,0-1.33-.81s.77-.76,1.37-.77,1.31,0,2,0,1,.1,1.07.74-.5.87-1.11.84C39.49,79,39.1,79,38.72,79Z"/><path d="M61.1,79H60c-.49,0-.88-.14-.92-.69s.32-.89.9-.89h2.3c.57,0,1.19,0,1.19.78s-.58.82-1.18.8C61.86,79,61.48,79,61.1,79Z"/><path d="M22.27,74.08a.92.92,0,0,1,1.1.9c0,.58-.59.69-1.12.67s-1.33.09-1.35-.79S21.54,74.12,22.27,74.08Z"/><path d="M77.69,74.08c.65.06,1.39-.06,1.4.81s-.66.76-1.2.75-1.13.14-1.18-.71S77.23,74.14,77.69,74.08Z"/><path d="M60.44,68.11a5.91,5.91,0,0,1-6-6,6,6,0,1,1,12,0A5.93,5.93,0,0,1,60.44,68.11Zm0-10.36A4.38,4.38,0,0,0,56,62.14a4.44,4.44,0,1,0,8.88,0A4.39,4.39,0,0,0,60.45,57.75Z"/></svg>