<svg id="b8c492c1-50a5-47e8-9870-baa3140baf74" data-name="Capa 1" xmlns="http://www.w3.org/2000/svg" viewBox="0 0 100 100"><title>_</title><path d="M55.51,69l-1.18,1a7.35,7.35,0,0,1-6.87,1.47,7.2,7.2,0,0,1-2.9-1.6c-.39-.33-.78-.68-1.18-1a5.33,5.33,0,0,0-6.93,0c-.37.31-.75.62-1.11.94a7.46,7.46,0,0,1-10,0c-.31-.28-.64-.53-.95-.8a5.3,5.3,0,0,0-3.63-1.41,1,1,0,0,1-.46-2,1.86,1.86,0,0,1,.71-.11,7,7,0,0,1,4.48,1.67c.52.42,1,.87,1.55,1.28a5.27,5.27,0,0,0,6.51.07c.58-.44,1.13-.93,1.69-1.39a7.37,7.37,0,0,1,9.27-.06c.54.42,1.05.88,1.59,1.31a5.31,5.31,0,0,0,6.76,0c.86-.66,1.72-1.32,2.57-2a.37.37,0,0,0,.15-.2c.23-1,.45-1.93.69-3-.25.18-.47.32-.67.48-.8.61-1.56,1.3-2.41,1.85a7.4,7.4,0,0,1-8.28-.6l-1.45-1.21a5.33,5.33,0,0,0-7.06,0,25.08,25.08,0,0,1-2.08,1.65,7.39,7.39,0,0,1-8.71-.53c-.4-.32-.79-.65-1.18-1a5.49,5.49,0,0,0-3.66-1.45,1,1,0,0,1-.89-1.58,1.06,1.06,0,0,1,.95-.49A7,7,0,0,1,25.44,62c.52.42,1,.87,1.55,1.29a5.33,5.33,0,0,0,6.9-.11,25.24,25.24,0,0,1,2.25-1.76,7.47,7.47,0,0,1,8.84.87,10.9,10.9,0,0,0,2,1.51,5.08,5.08,0,0,0,5.59-.24c.73-.49,1.38-1.11,2.07-1.66a7.36,7.36,0,0,1,2.92-1.38,1.15,1.15,0,0,0,.6-.39,13.21,13.21,0,0,1,8.18-5.07,12.65,12.65,0,0,1,6.14.34l.59.19c0-.18,0-.33,0-.47,0-4.26,0-8.52,0-12.77A2,2,0,0,0,71,40.26H51.15l-.28,0c0,.17,0,.32,0,.47q0,7.38,0,14.74c0,.47,0,.94,0,1.41a1.06,1.06,0,0,1-1.05,1.16,1,1,0,0,1-1-1.16q0-1.56,0-3.12c0-.31-.11-.39-.4-.39H32.15c-.32,0-.38.14-.37.41,0,1,0,2,0,3.05,0,.75-.39,1.2-1,1.21s-1.06-.46-1.06-1.24q0-7.86,0-15.72c0-.84,0-.84-.85-.84H24.15a2.07,2.07,0,0,0-2.31,2.3c0,4.74,0,9.48,0,14.23a1.91,1.91,0,0,1-.14.74,1,1,0,0,1-1.12.5,1,1,0,0,1-.8-.89,3.7,3.7,0,0,1,0-.47V42.39a4.11,4.11,0,0,1,3.54-4.19,5.26,5.26,0,0,1,.89,0c1.69,0,3.37,0,5.06,0,.34,0,.47-.08.47-.45,0-2.33,0-4.66,0-7a3.46,3.46,0,0,0-3-3.31,8.14,8.14,0,0,0-.85-.08,1.07,1.07,0,0,1-1-1,1,1,0,0,1,1-1.07,5.65,5.65,0,0,1,5.92,5.31v1.66h16.9c.46-2.75-.75-4.66-3.64-4.88a1.08,1.08,0,0,1-1.14-1A1,1,0,0,1,45,25.25a5.78,5.78,0,0,1,5.67,4,6.72,6.72,0,0,1,.22,1.61c0,2.24,0,4.48,0,6.72v.57h.59c6.44,0,12.88,0,19.33,0a4.31,4.31,0,0,1,4.42,4.45c-.06,4.51,0,9,0,13.54a.74.74,0,0,0,.39.71c4.54,3,6.74,7.23,6.17,12.67A13,13,0,0,1,70.78,81a13.21,13.21,0,0,1-13.89-7.13c-.08-.16-.16-.33-.27-.53a4.33,4.33,0,0,0-.48.28l-1.93,1.56a7.4,7.4,0,0,1-9.41,0c-.64-.52-1.26-1.08-1.94-1.55a5.24,5.24,0,0,0-6,.11,14.22,14.22,0,0,0-1.36,1.1,7.5,7.5,0,0,1-10.3,0c-.37-.34-.76-.65-1.15-1a5,5,0,0,0-3.17-1.11,1,1,0,0,1-1.13-1.16A1.08,1.08,0,0,1,21,70.66a7.31,7.31,0,0,1,4.82,1.93c.46.39.91.79,1.39,1.14a5.28,5.28,0,0,0,6.45-.07c.67-.53,1.3-1.12,2-1.62a7.39,7.39,0,0,1,9.06.33,15.25,15.25,0,0,0,2.23,1.72,5.08,5.08,0,0,0,5.66-.29c.64-.45,1.22-1,1.83-1.48a9.75,9.75,0,0,1,.84-.59c.65-.42.65-.41.5-1.15C55.67,70.09,55.61,69.6,55.51,69Zm2.08-1A11.08,11.08,0,1,0,68.57,57,11.11,11.11,0,0,0,57.59,68.05ZM40.21,51.29h8.1c.33,0,.45-.08.44-.43,0-1.24,0-2.48,0-3.73,0-.3-.07-.43-.4-.43H32.19c-.31,0-.42.1-.42.42,0,1.24,0,2.49,0,3.73,0,.37.12.44.47.44Zm-8.37-11a.85.85,0,0,0-.05.18c0,1.29,0,2.59,0,3.89,0,.33.19.32.42.32H48.34c.33,0,.42-.11.41-.42,0-1.16,0-2.32,0-3.47,0-.43-.14-.52-.54-.51H31.84Zm-.06-2.13.25,0H48.39c.3,0,.36-.12.36-.38,0-1,0-1.92,0-2.87,0-.56,0-.56-.57-.56H34.6c-.92,0-1.84,0-2.76.06l-.06,2.73Z"/><path d="M76.52,63.4a2.89,2.89,0,0,1-.52.77q-3.34,2.39-6.74,4.7a1.25,1.25,0,0,1-1,.1c-2-.75-4-1.56-6-2.36A1,1,0,1,1,63,64.67l5.17,2a.61.61,0,0,0,.67-.08c1.92-1.36,3.85-2.7,5.78-4a1.07,1.07,0,0,1,1.59.11A4.43,4.43,0,0,1,76.52,63.4Z"/></svg>