<svg id="a5b04edb-477d-4818-8119-6cd673472ab8" data-name="Capa 1" xmlns="http://www.w3.org/2000/svg" viewBox="0 0 100 100"><title>_</title><path d="M63.26,40c0,.12.1.16.17.22a6.77,6.77,0,0,0,.89,1.42h0a1.15,1.15,0,0,0,.37.6,3.54,3.54,0,0,0,.63,1.14,42.52,42.52,0,0,1,2.29,4.26c.22.48.47,1,.69,1.43a30.56,30.56,0,0,1,2.22,6.45,20.47,20.47,0,0,1,.55,5A22.53,22.53,0,0,1,70.21,66a21.32,21.32,0,0,1-3.11,6.35,19.18,19.18,0,0,1-1.92,2.3,21.36,21.36,0,0,1-4.79,3.73A21.17,21.17,0,0,1,46.77,80.9a20.67,20.67,0,0,1-7.7-2.81A21.47,21.47,0,0,1,33.32,73a20.26,20.26,0,0,1-2.86-5,19.35,19.35,0,0,1-1.15-3.87,19.59,19.59,0,0,1-.1-7.2,31.81,31.81,0,0,1,.92-3.61,35.87,35.87,0,0,1,2.19-5.23c.86-1.75,1.86-3.42,2.88-5.08s1.93-3,2.93-4.48,2.2-3.18,3.29-4.78q1.42-2.07,2.82-4.15c.71-1.07,1.41-2.14,2-3.26A41.91,41.91,0,0,0,49,21c.39-1,.67-1.95,1-3,.14.33.26.61.36.9a34.66,34.66,0,0,0,2.38,5c.77,1.4,1.63,2.75,2.47,4.11.6,1,1.26,1.91,1.9,2.86l1.67,2.43a2.48,2.48,0,0,0,.43.67,8.77,8.77,0,0,0,1.11,1.51c0,.09,0,.17.1.21a1.69,1.69,0,0,0,.69.93,1.83,1.83,0,0,0,.4.72c.44.68.91,1.33,1.3,2a4.09,4.09,0,0,0,.45.56v0ZM36.56,70.66l.07.08h0a1.52,1.52,0,0,0,.52.6h0a.51.51,0,0,0,.23.29A13.32,13.32,0,0,0,38.88,73a17.28,17.28,0,0,0,3.28,2.14,12.93,12.93,0,0,0,2,.87c.5.13,1,.35,1.48.46s.85.18,1.28.29a9.74,9.74,0,0,0,1.72.2,17.52,17.52,0,0,0,9.43-1.94,17.29,17.29,0,0,0,5.66-4.67,17,17,0,0,0,2.64-4.75,14.33,14.33,0,0,0,.72-2.56,14,14,0,0,0,.38-3.52,18,18,0,0,0-.35-3.43c.15-.23-.11-.36-.15-.55a8.17,8.17,0,0,0-1.85-3.66A7.26,7.26,0,0,0,60,49.58a15.81,15.81,0,0,0-3.76.16c-2.76.41-5.45,1.12-8.17,1.74-1.4.32-2.8.59-4.22.78a14.82,14.82,0,0,1-4.1,0v-.13a.93.93,0,0,0,.47,0,3.35,3.35,0,0,0,.95,0,.75.75,0,0,0,.39,0A.54.54,0,0,0,42,52a6.08,6.08,0,0,0,1.28-.18,56,56,0,0,0,6.91-2.42,32,32,0,0,1,3.54-1.19A14.94,14.94,0,0,1,56,47.89a12.57,12.57,0,0,1,1.94,0c.07,0,.17.05.22-.08a22.19,22.19,0,0,0-3.25-2.54,8.55,8.55,0,0,0-2.23-1.14,13.69,13.69,0,0,0-2.21-.53,8.68,8.68,0,0,0-4.25.66A20.87,20.87,0,0,0,41.81,47c-1.3,1-2.57,2-4,2.9A9.63,9.63,0,0,1,35,51.14c-.09,0-.22,0-.24.14s.1.15.17.21a23.81,23.81,0,0,0,8,4.84,19,19,0,0,0,6.32,1.27,11.12,11.12,0,0,0,5.82-1.28,6.9,6.9,0,0,0,2.61-2.59,6.75,6.75,0,0,0,.83-2.13.31.31,0,0,1,.37-.3l1.11.06a5.94,5.94,0,0,1,2.89,1,8.65,8.65,0,0,1,1.29,1.2l.53,1,0,.07a2.69,2.69,0,0,0,.3.64l0,.11.46,1.63,0,.15a18.58,18.58,0,0,1,.16,3.42v.14c0,.4-.09.78-.13,1.17-.07.61-.3,1.19-.33,1.8v0h0l-.55,1.61a15.2,15.2,0,0,1-3,4.87,15.49,15.49,0,0,1-6,4.15,16.71,16.71,0,0,1-3.61.95,15,15,0,0,1-4.13,0,15.43,15.43,0,0,1-6.31-2.19,8.29,8.29,0,0,1-1.31-.92,5.87,5.87,0,0,0,1.84,0A10.56,10.56,0,0,0,46.55,70a31.85,31.85,0,0,0,2.82-2.37c.54-.51,1.09-1,1.62-1.51a42,42,0,0,1,3.76-3.29,10.37,10.37,0,0,1,3.57-1.94,9.91,9.91,0,0,0-2.91,2,30.34,30.34,0,0,0-2.51,2.81c-.84,1-1.65,2-2.52,3a13.17,13.17,0,0,1-3.16,2.75c-.29.17-.6.3-1,.5a15.75,15.75,0,0,0,5.35.41,7.2,7.2,0,0,0,3-1.07,8.73,8.73,0,0,0,3-3.48,8.58,8.58,0,0,0,.89-1.92h0a1.29,1.29,0,0,0,.28-.59l0-.07a5.63,5.63,0,0,0,.45-1c.06,0,.06-.09.06-.15a22.58,22.58,0,0,1,1.79-3.41h0s.07,0,.07-.08h0a4.74,4.74,0,0,1,.9-.89,1.56,1.56,0,0,0-.9-.22h0a1.93,1.93,0,0,0-.89-.15l-.14,0a.78.78,0,0,0-.45,0l-.14,0-.18-.05a21.18,21.18,0,0,0-4.43.07,8.46,8.46,0,0,0-1.41.23h0a11.3,11.3,0,0,0-2.9.82c-.06,0-.11,0-.15.06a4.29,4.29,0,0,0-1.29.53A8,8,0,0,0,47,62.26c-.07,0-.08.05-.06.11s-.11,0-.15,0h0a4.92,4.92,0,0,0-1.11,1.12h0a5.49,5.49,0,0,0-1.31,2.61,0,0,0,0,0,0,.06,5.54,5.54,0,0,0,.16,3.27h0v.15h0a4.13,4.13,0,0,0-.95.51h0a2.57,2.57,0,0,0-.66.28h0a4.78,4.78,0,0,1-2.9,0c-.27-.09-.54-.22-.81-.33h0A9.59,9.59,0,0,1,37,68.29a9.06,9.06,0,0,1-1.22-1.8,15.64,15.64,0,0,1-1.41-9.18c.15-.88.36-1.75.59-2.61.07-.17.15-.34.21-.51.26-.64.26-.64-.26-1.09a3.08,3.08,0,0,1-.58-.56.26.26,0,0,0-.33-.1c-.1,0-.14.11-.08.23s0,.11-.05.16c-.29.82-.59,1.63-.8,2.47a13.58,13.58,0,0,0-.48,3.17,8.05,8.05,0,0,0,0,2.3l0,.31A10.09,10.09,0,0,0,33,63.34a17.12,17.12,0,0,0,.84,2.72,9.9,9.9,0,0,0,.83,1.7h0A10.48,10.48,0,0,0,36.2,70.2h0a.93.93,0,0,0,.36.45Z"/></svg>