<svg id="ab624efd-3e15-49c9-9f8b-c1dfeb026f44" data-name="Capa 1" xmlns="http://www.w3.org/2000/svg" viewBox="0 0 100 100"><title>_</title><path d="M56.6,51.72c0,.58,0,1.1,0,1.62a.39.39,0,0,0,.23.26,12.19,12.19,0,0,1,4.8,3.7.48.48,0,0,0,.31.18h2.42v-2.4h3.44V74.36H64.38V72a12.4,12.4,0,0,1-1.5,0,1.87,1.87,0,0,0-1.76.77,12,12,0,0,1-18.38-.37.87.87,0,0,0-.81-.39c-.68,0-1.36,0-2.09,0v2.38H36.41V55.09h3.42v2.39c.86,0,1.67,0,2.47,0,.1,0,.22-.11.3-.21a12.37,12.37,0,0,1,4.73-3.65.57.57,0,0,0,.27-.4c0-.47,0-1,0-1.49H45.49c-.63,0-.78-.15-.78-.77V48.1c0-.55.17-.71.72-.71H58.79c.54,0,.71.17.71.71,0,1,0,1.93,0,2.9,0,.55-.18.72-.75.72Z"/><path d="M58.65,43.8h-4.3v2.1H49.88V43.81H45.59c0-.16,0-.28,0-.4v-4A2.37,2.37,0,0,1,48,37h7.27a.87.87,0,0,0,.71-.29c1-1.06,2.08-2.09,3.12-3.14a2.39,2.39,0,0,1,1.75-.74H76a2.37,2.37,0,0,1,.58,4.67,3.64,3.64,0,0,1-.81.07H62.35a1.08,1.08,0,0,0-.86.35c-.86.89-1.74,1.74-2.6,2.63a.94.94,0,0,0-.23.55C58.64,41.94,58.65,42.84,58.65,43.8Z"/><path d="M35.73,74.36H32.3V72H26.87V57.43h5.42V55.09h3.44Z"/><path d="M77.33,72H71.92v2.32H68.48V55.09h3.41v2.32h5.44Z"/></svg>