<?xml version="1.0" encoding="utf-8"?>
<!-- Generator: Adobe Illustrator 23.0.4, SVG Export Plug-In . SVG Version: 6.00 Build 0)  -->
<svg version="1.1" id="f5ae6446-4c89-4eda-955c-6cf276fafd56"
	 xmlns="http://www.w3.org/2000/svg" xmlns:xlink="http://www.w3.org/1999/xlink" x="0px" y="0px" viewBox="0 0 100 100"
	 style="enable-background:new 0 0 100 100;" xml:space="preserve">
<style type="text/css">
	.st0{stroke:#000000;stroke-width:2;stroke-miterlimit:10;}
</style>
<title>_</title>
<path class="st0" d="M60.3,96.7c-2.3-0.5-4.5-1-6.8-1.6c-1.9-0.3-3.9-0.2-5.8,0.3c-2.1,0.2-4.1,0.6-6.2,0.8c-0.4,0-0.9-0.1-1.2-0.4
	c-1.1-1.1-2.5-1.8-4.1-1.9c-1.8-0.2-3.6-0.5-5.4-0.8c-1.1-0.2-1.3-0.3-0.9-1.3c1-2.1,0.4-4.6-1.5-6c-0.9-0.8-1.6-1.9-2.4-2.9
	c-0.5-0.4-0.6-1.2-0.1-1.7c0,0,0,0,0,0c1.3-2,2.4-4,3.6-6c0.1-0.1,0.1-0.2,0.1-0.3c-3.1-4.3-6.2-8.7-9.4-13.1
	c-1.1-1.5-2.2-3-3.2-4.5c-0.3-0.4-0.4-0.9-0.3-1.4c1.6-4.4,3.1-8.8,4.6-13.1c0.3-0.7,0.6-1,1.3-0.8c2,0.5,3.9,0.8,5.9,1.2l1,0.1
	c-0.1-0.5-0.2-0.8-0.3-1.2c-1.7-6.5-3.5-12.9-5.3-19.4c-0.2-0.5,0-1.2,0.5-1.4c8.9-5.8,17.9-11.7,26.8-17.6c0.4-0.4,1-0.3,1.4,0.1
	c0,0,0,0,0,0c4.6,3.9,9.2,7.9,13.7,11.8c0.3,0.4,0.5,0.8,0.6,1.3c0.1,0.3,0.1,0.5,0,0.8c-0.4,1.8,0.5,2.8,2.1,3.6
	c2.3,1,4.5,2.3,6.7,3.5c0.5,0.3,0.8,0.7,1,1.3c1.4,4.2,2.8,8.3,4.2,12.6c0.1,0.3,0.2,0.6,0.4,0.9v0.5c-0.1,0.3-0.3,0.5-0.3,0.8
	c-2.8,9.1-5.6,18.2-8.4,27.4c-0.5,1.8-1,3.4-1.6,5.1l0.7,0.3c2.5,0.9,4.9,1.9,7.4,2.8c0.8,0.3,0.8,0.6,0.4,1.3
	c-1,1.6-1.8,3.3-2.8,4.9c-0.3,0.5-0.7,0.9-1.3,1.2c-2,1.2-4,2.2-6,3.4c-0.4,0.3-0.7,0.6-0.8,1.1c-0.5,1.5-1,2.9-1.4,4.4
	c-0.1,0.6-0.5,1-1.1,1.2c-1.8,0.8-3.4,1.8-5.2,2.6H60.3z M42.1,55.7l0.8-0.5c2.6-1.8,5.3-3.5,7.9-5.1c0.6-0.3,0.9-0.9,0.9-1.5
	c0-6.3,0-12.7,0-19c-0.1-0.6,0.3-1.2,0.9-1.3c1.3-0.4,2.6-0.9,4-1.3L51.8,4.6c-4.6,3.9-9.1,7.8-13.5,11.6c-0.2,0.2-0.3,0.6-0.3,0.9
	c0.4,3.6,0.8,7.3,1.1,11L41,46.6C41.3,49.6,41.7,52.6,42.1,55.7z M45.4,9V8.9l-0.3,0.1c-6.6,4.2-13.2,8.4-19.7,12.8
	c-0.6,0.3-0.4,0.7-0.3,1.1c2.2,8.3,4.6,16.7,6.7,25.1c0.4,2.3,1.7,4.4,3.6,5.8c1.5,1.1,2.9,2.5,4.3,3.7c0.8-0.6,1.4-1.1,1.3-2.2
	c-0.7-6.1-1.3-12.1-1.9-18.2L37,17c-0.1-0.6,0.1-1.1,0.6-1.5C40.3,13.3,42.8,11.1,45.4,9L45.4,9z M80.4,40l-11.6-2.6
	c-0.1,0.3-0.2,0.6-0.3,0.9c-1.9,6.5-3.6,13-5.7,19.5c-0.9,2.2-0.8,4.7,0.4,6.7c0.9,1.5,1.1,3.5,0.3,5.1c-0.6,1.6-1,3.3-1.4,5
	c0.4,0,0.8-0.1,1.2-0.1c2-0.3,3.9-0.7,5.9-1c0.6,0,1.1-0.4,1.2-1c2-6.6,4.1-13.3,6.2-19.9C77.8,48.4,79.1,44.3,80.4,40z M52.5,29.4
	v17.8c0,2.3,0,2.5,2.1,3.1c2.5,0.6,4.5,2.6,5,5.2c0.4,1.1,0.8,2.2,1.3,3.2l0.4,1c0.1-0.1,0.1-0.2,0.2-0.4c2.1-7.3,4.2-14.6,6.3-21.9
	c0.1-0.3,0-0.6-0.1-0.9c-0.9-1.6-1.8-3.1-2.9-4.6c-0.2-0.3-0.4-0.5-0.7-0.6C60.3,30.6,56.4,30,52.5,29.4z M53.3,60L53,60.2
	l-13.7,9.7c-0.4,0.3-0.4,0.6-0.3,1.1c1.3,3.6,2.6,7.2,3.8,10.9c0.1,0.6,0.7,0.9,1.2,0.8c4.6,0,9.1,0,13.7,0h1L53.3,60z M17.7,56.2
	c0.1,0.1,0.2,0.2,0.3,0.2c3,1.6,6,3.2,9,4.8c0.3,0.2,0.7,0.2,1,0.2c2.1,0,4.1-0.1,6.2-0.2c0.3,0,0.6-0.1,0.9-0.2c1.3-1,2.7-2,4-2.9
	l-16.8-15L17.7,56.2z M57.1,52.4c-1.5-0.7-3-1.2-4.4-1.9c-0.4-0.2-1-0.2-1.3,0.1c-4,2.8-8.2,5.3-12.1,8.2c-2.8,2-5.3,4.5-7.2,7.3
	c-0.3,0.5-0.7,1-1.1,1.5c2.2,0.6,4.2,1.1,6.3,1.6c0.5,0.1,1,0,1.4-0.2c4.7-3.3,9.3-6.6,14-9.9c0.3-0.2,0.5-0.4,0.7-0.7
	C54.6,56.6,55.9,54.5,57.1,52.4z M67,21c-0.5,3-1,6-1.6,8.8c-0.1,0.6,0,1.3,0.4,1.8c0.8,1.1,1.5,2.2,2.2,3.4c0.4,1,1.3,1.6,2.3,1.8
	c3.3,0.7,6.6,1.5,10,2.2c-0.1-0.4-0.2-0.7-0.3-1c-0.9-2.7-1.8-5.4-2.7-8c-0.3-1.5-0.8-2.8-1.5-4.1c-1.1-0.9-2.4-1.7-3.8-2.2L67,21z
	 M59.3,81.1c0.1-0.4,0.2-0.6,0.3-0.8c1.2-4.2,2.4-8.3,3.6-12.6c0.1-0.5,0.1-1-0.1-1.5c-1-2.6-2.1-5.2-3.1-7.8l-2.2-5.4
	c-1.2,2-2.3,3.8-3.4,5.7c-0.1,0.3-0.1,0.6,0,1c1.5,6.8,3,13.5,4.6,20.2C59,80.3,59.1,80.6,59.3,81.1z M52.8,5l3.6,17.5l9.7-2.5
	c0-0.9,0-1.8,0-2.6c0.1-0.6-0.2-1.2-0.7-1.5L53.6,5.7L52.8,5z M31.1,68.7c0,0.1,0,0.3,0,0.4c1,3.3,1.8,6.5,2.9,9.8
	c0.2,0.3,0.4,0.6,0.7,0.7c2.2,0.9,4.4,1.8,6.6,2.6c0.2,0,0.4,0.1,0.7,0.2c-1.2-3.4-2.4-6.5-3.4-9.8c-0.3-1.4-1.4-2.4-2.8-2.6
	C34.2,69.6,32.7,69.2,31.1,68.7z M56.7,23.4c0.2,1.1,0.4,2.2,0.7,3.2c0.2,0.4,0,0.9-0.4,1.1c-0.1,0-0.2,0.1-0.3,0.1
	c-0.8,0.3-1.6,0.6-2.4,0.8v0.2l10.1,1.6L66,21L56.7,23.4z M19,58.1l-0.1,0.3l13.2,18.4c0.1-0.2,0.1-0.4,0-0.6
	c-0.7-2.3-1.3-4.7-2.1-7c-0.2-0.8-0.4-1.5,0.3-2c-1.4-2.8-3.7-5-6.5-6.4L21,59.2L19,58.1z M33.8,80.2l-3,10.9l0.3,0.1l10.8-7.9
	L33.8,80.2z M60.2,95.6l-1.3-11.2l-6,9.5L60.2,95.6z M47.2,88.4l4.8,5.1l5.9-9.1l-0.1-0.1L47.2,88.4z M41.6,84.9l-0.2-0.1l-10,7.4
	l7,1.1L41.6,84.9z M43.6,83.7c0.9,1.2,1.7,2.3,2.4,3.4c0.2,0.4,0.7,0.6,1.1,0.5c0.1,0,0.1-0.1,0.2-0.1c2.5-1.1,5.1-2,7.7-3.1
	l1.4-0.6v-0.1H43.6z M68.1,86.7l1.1-6.8l-8.7,3.3L68.1,86.7z M65.9,93.2l-5.9-8l0,0.1l1.2,10.3L65.9,93.2z M42,95.1l9.1-1.2l-4.6-5
	L42,95.1z M59.9,82.4l8.6-3.3L61.8,76L59.9,82.4z M67.9,87.6l-7-3.2l-0.1,0.1l5.7,7.7L67.9,87.6z M31,87.3l2-7l-6.2,1.9L31,87.3z
	 M42.9,84.1l-3.1,8.1H40l5.8-4.2L42.9,84.1z M70,79.9l-1,6.6l6.1-3.4L70,79.9z M31.3,50h0.2c-0.5-1.8-0.9-3.5-1.4-5.2
	c-0.1-0.2-0.3-0.4-0.5-0.5c-1.8-0.4-3.7-0.8-5.6-1.1v0.1L31.3,50z M76,82.5l2.7-4.7L71,79.4L76,82.5z M70.3,78.6l7.2-1.5v-0.2
	l-6.7-2.5L70.3,78.6z M70,74.3l-6.6,1.2v0.2l6,2.8L70,74.3z M27,81.2l5.9-1.8l-2.6-3.6L27,81.2z M31,66.2l3-4.1l-5.9,0.3L31,66.2z
	 M40.9,94.9l3.1-4.2h-0.2l-4.4,3.2L40.9,94.9z"/>
</svg>
