<?xml version="1.0" encoding="utf-8"?>
<!-- Generator: Adobe Illustrator 23.0.4, SVG Export Plug-In . SVG Version: 6.00 Build 0)  -->
<svg version="1.1" id="f31702cd-1062-44e5-af09-c42f32827dec"
	 xmlns="http://www.w3.org/2000/svg" xmlns:xlink="http://www.w3.org/1999/xlink" x="0px" y="0px" viewBox="0 0 100 100"
	 style="enable-background:new 0 0 100 100;" xml:space="preserve">
<title>_</title>
<path d="M59.4,48.6l-5.9,19.2l8.8,3.1L62,72.1l-8.9-2.2l-1.9,5.9l-13.5-3.7l-2.5,9.3l-1.1-0.2c-0.1-0.7-0.1-1.3,0-2
	c0.5-3,1.2-6,2.1-8.9c1-2.2,2.1-4.3,3.3-6.3c2.7-5.6,5.3-11.2,7.9-16.8c0.3-0.7-0.1-1.7-0.2-2.6c-0.7,0.5-1.7,0.9-2.1,1.6
	c-1.3,2.2-2.3,4.6-3.5,6.9c-0.4,0.7-0.9,1.4-1.4,2l-0.8-0.3c0.1-0.8,0.3-1.6,0.5-2.4c1.4-4,2.9-8,4.2-12c0.3-0.8-0.2-1.7-0.4-2.6
	c-0.7,0.6-1.7,1-2,1.8c-1.4,2.8-2.5,5.7-3.8,8.6c-0.4,1-1,2-1.4,3l-0.9-0.2c0-0.8,0-1.6,0.2-2.4c1-4.3,2.2-8.6,3.2-12.9
	c0.2-0.7-0.3-1.6-0.5-2.4c-0.7,0.6-1.7,1-1.9,1.8c-1.7,4.4-3.1,8.9-4.5,13.4c-0.1,0.4-0.4,0.7-1.2,1c-0.2-0.6-0.2-1.2-0.2-1.8
	c0.5-3.2,1.1-6.4,1.5-9.6c-0.1-1-0.4-1.9-0.8-2.8c-0.6,0.8-1.6,1.4-1.8,2.3c-1.2,5.1-2.3,10.3-3.4,15.4c-0.2,0.6-0.5,1.1-0.8,1.7
	c-2.9-3.5-1-8.7-4.5-11.7c-0.5,0.4-0.7,0.5-0.7,0.7c0.2,6.6,0.1,13.1,2.6,19.4c0.3,0.6,0.4,1.4,0.3,2.1c-1.3,3.7-2.8,7.2-4.2,10.9
	c-0.1,0.3-0.6,0.5-1,0.8l-0.8-0.3l3.1-9L4,62.4c0.6-2.2,1.2-4.3,1.8-6.4c3.6-12.6,7.2-25.2,10.7-37.9c0.6-2.2,1.4-2.9,3.8-2.2
	c14,4.2,28,8.1,42.1,12.2c0.8,0.2,1.3,1.2,2,1.7c0.6,0.6,1.3,1.1,2,1.5c0.9,0.5,1.8,0.9,2.8,1.2l-0.3,1l-5.4-1
	C62.1,37.9,60.7,43.3,59.4,48.6L59.4,48.6z M25,48.5c0.3-0.9,0.5-1.3,0.6-1.7c0.6-3.1,1.1-6.2,1.9-9.2c0.4-1.5,1.1-3.5,2.3-4
	c1.1-0.5,3,0.6,4.6,1c0.6-1.7,1.3-3.9,4.2-3.2c1.6,0.3,2.7,2,2.4,3.6c0,0.1-0.1,0.3-0.1,0.4c1.8,0.6,4.1,0.7,4.8,1.7
	s0.2,3.4,0.2,5.2c3.8,0.4,4.9,2.1,3.1,5.6c-3.4,7-7,13.8-10.5,20.7c-0.1,0.5-0.2,0.9-0.3,1.4c3.3,1,6.5,1.7,9.6,2.9
	c2,0.7,2.6,0,3.1-1.7c2.5-9.3,5.2-18.5,7.7-27.8c1.3-4.6,2.6-9.2,3.9-13.9L18.7,17.3c-4.2,14.8-8.3,29.2-12.5,43.9L21,65.4
	c0-0.9,0.3-1.4,0-1.9C18.3,57.6,18.9,51.2,18,45c-0.3-1.8,0.2-3.8,2.2-3.8c1.2,0,2.8,1.5,3.6,2.7C24.6,45.2,24.6,46.7,25,48.5z"/>
<path d="M74.6,75.8c2.9-1.7,5.8-3,5-7.3c1.9,2.9,3.6,5.3,7.4,4.9l-0.3,0.7c-1.3,0.7-2.5,1.5-3.6,2.6c-0.7,1.1-0.7,2.7-1.4,4.3
	C80.5,77.8,78.4,75.9,74.6,75.8z"/>
<path d="M76.7,51.9l5.6,1.5L80.6,59L75,57.3L76.7,51.9z"/>
<path d="M76.1,46l17,5.9C90.9,53.5,77.6,48.6,76.1,46z"/>
<path d="M89.1,42.2l-13.9-4.6l0.5-1.4c4.7,1.2,9.3,2.8,13.8,4.6L89.1,42.2z"/>
<path d="M59.3,48.6c3.2,0.7,6.4,1.2,9.5,2c1.4,0.4,2.8,1,4.1,1.6L72.7,53c-0.5,0.1-1.1,0.2-1.7,0.1c-3.5-1-6.9-2-10.3-3.1
	C60.2,49.8,59.8,49,59.3,48.6L59.3,48.6z"/>
<path d="M66.4,75.9l11.5,4.2c-2.5,1.3-10.4-1.4-11.8-3.3L66.4,75.9z"/>
<path d="M74.1,44.4l-10.7-3.3C65.6,39.6,73.2,41.9,74.1,44.4z"/>
<path d="M59.7,58.2c4.1,0,7.1,1.4,10.5,2.6C68.3,62.2,62.3,60.7,59.7,58.2z"/>
<path d="M87,65.4c-3.9-0.2-6.8-1.6-10.1-3C79,61.2,84.7,62.9,87,65.4z"/>
<path d="M74.3,70.6l-6.6-2.1c2.2-1.3,5.1-0.6,6.4,1.6C74.2,70.3,74.2,70.5,74.3,70.6z"/>
</svg>
